<svg width="48" height="48" viewBox="0 0 48 48" fill="none" xmlns="http://www.w3.org/2000/svg">
<path d="M34.6091 16.3846C35.3416 17.1171 35.3416 18.3043 34.6091 19.0364L22.0305 31.6154C21.2981 32.3474 20.1112 32.3474 19.3788 31.6154L13.3909 25.6271C12.6584 24.895 12.6584 23.7078 13.3909 22.9757C14.1229 22.2433 15.3102 22.2433 16.0422 22.9757L20.7045 27.6379L31.9574 16.3846C32.6898 15.6526 33.8771 15.6526 34.6091 16.3846ZM48 24C48 37.266 37.2642 48 24 48C10.734 48 0 37.2642 0 24C0 10.734 10.7358 0 24 0C37.266 0 48 10.7358 48 24ZM44.25 24C44.25 12.8068 35.1918 3.75 24 3.75C12.8068 3.75 3.75 12.8082 3.75 24C3.75 35.1932 12.8082 44.25 24 44.25C35.1932 44.25 44.25 35.1918 44.25 24Z" fill="#55B570"/>
</svg>
