<svg width="30" height="30" viewBox="0 0 30 30" fill="none" xmlns="http://www.w3.org/2000/svg">
<path d="M15 0C9.18445 0 4.45312 4.73133 4.45312 10.5469C4.45312 12.5118 4.9974 14.4293 6.02748 16.0929L14.3996 29.5845C14.56 29.843 14.8426 30 15.1464 30C15.1488 30 15.1511 30 15.1534 30C15.4599 29.9976 15.743 29.8357 15.9005 29.5727L24.0592 15.9504C25.0325 14.322 25.5469 12.4535 25.5469 10.5469C25.5469 4.73133 20.8155 0 15 0ZM22.5507 15.0479L15.1331 27.4328L7.5215 15.1668C6.6641 13.7821 6.19922 12.1846 6.19922 10.5469C6.19922 5.70059 10.1537 1.74609 15 1.74609C19.8463 1.74609 23.7949 5.70059 23.7949 10.5469C23.7949 12.136 23.3607 13.6927 22.5507 15.0479Z" fill="#039951"/>
<path d="M15 5.27344C12.0922 5.27344 9.72656 7.6391 9.72656 10.5469C9.72656 13.4361 12.0537 15.8203 15 15.8203C17.9826 15.8203 20.2734 13.4043 20.2734 10.5469C20.2734 7.6391 17.9078 5.27344 15 5.27344ZM15 14.0742C13.0513 14.0742 11.4727 12.4903 11.4727 10.5469C11.4727 8.60836 13.0615 7.01953 15 7.01953C16.9385 7.01953 18.5215 8.60836 18.5215 10.5469C18.5215 12.4619 16.9795 14.0742 15 14.0742Z" fill="#039951"/>
</svg>
