<svg width="30" height="30" viewBox="0 0 30 30" fill="none" xmlns="http://www.w3.org/2000/svg">
<path d="M14.9414 0C6.6832 0 0 6.68262 0 14.9414C0 23.1384 6.62256 30 14.9414 30C23.1823 30 30 23.2082 30 14.9414C30 6.61348 23.1295 0 14.9414 0ZM14.9414 28.2539C7.67197 28.2539 1.74609 22.2755 1.74609 14.9414C1.74609 7.67197 7.67197 1.74609 14.9414 1.74609C22.2755 1.74609 28.2539 7.67197 28.2539 14.9414C28.2539 22.2755 22.2755 28.2539 14.9414 28.2539Z" fill="#039951"/>
<path d="M14.9414 5.27344C9.61049 5.27344 5.27344 9.61049 5.27344 14.9414C5.27344 20.2924 9.60158 24.7266 14.9414 24.7266C17.102 24.7266 19.2876 24.0004 20.9378 22.7343C21.323 22.4388 21.3956 21.8871 21.1001 21.502C20.8046 21.1168 20.2529 21.0442 19.8678 21.3397C18.5184 22.375 16.7228 22.9805 14.9414 22.9805C10.5797 22.9805 7.03125 19.3677 7.03125 14.9414C7.03125 10.5797 10.5797 7.01953 14.9414 7.01953C19.3677 7.01953 22.9688 10.5797 22.9688 14.9414V15.8203C22.9688 16.7896 22.1802 17.5781 21.2109 17.5781C20.2417 17.5781 19.4531 16.7896 19.4531 15.8203C19.4531 15.385 19.4531 11.8849 19.4531 11.4258C19.4531 10.9404 19.0596 10.5469 18.5742 10.5469C18.0888 10.5469 17.6953 10.9404 17.6953 11.4258V11.4815C16.9016 10.8763 15.9415 10.5469 14.9414 10.5469C12.5183 10.5469 10.5469 12.5183 10.5469 14.9414C10.5469 17.3646 12.5183 19.3359 14.9414 19.3359C16.2553 19.3359 17.4644 18.7721 18.3243 17.8235C18.9599 18.7366 20.0165 19.3359 21.2109 19.3359C23.1495 19.3359 24.7266 17.7588 24.7266 15.8203V14.9414C24.7266 9.59449 20.2857 5.27344 14.9414 5.27344ZM14.9414 17.5898C13.4875 17.5898 12.3047 16.3953 12.3047 14.9414C12.3047 13.4875 13.4875 12.293 14.9414 12.293C16.4342 12.293 17.6953 13.5121 17.6953 14.9414C17.6953 16.3707 16.4342 17.5898 14.9414 17.5898Z" fill="#039951"/>
</svg>
