<svg width="30" height="30" viewBox="0 0 30 30" fill="none" xmlns="http://www.w3.org/2000/svg">
<path d="M29.2295 22.127L25.5001 18.3976C24.4719 17.3694 22.7988 17.3694 21.7707 18.3976L20.0755 20.0927C19.2965 20.8717 18.029 20.8714 17.2504 20.093L9.9027 12.7391C9.12193 11.9583 9.12182 10.6946 9.9027 9.91374C10.1757 9.64069 10.9598 8.85664 11.5979 8.21856C12.6216 7.19492 12.6359 5.52705 11.5969 4.48818L7.86844 0.771448C6.84023 -0.2567 5.1672 -0.2567 4.14175 0.768752C3.3744 1.52942 3.1269 1.77481 2.78284 2.11588C-0.92498 5.82365 -0.92498 11.8567 2.78266 15.5643L14.4248 27.2125C18.1413 30.9291 24.1565 30.9294 27.8733 27.2125L29.2295 25.8564C30.2577 24.8282 30.2577 23.1552 29.2295 22.127ZM5.38218 2.01458C5.7249 1.67186 6.28248 1.6718 6.6263 2.01551L10.3547 5.73224C10.6983 6.07578 10.6983 6.63178 10.3547 6.97537L9.73313 7.59693L4.76378 2.62759L5.38218 2.01458ZM15.6682 25.9696L4.02597 14.3212C1.15733 11.4526 0.999653 6.94818 3.54104 3.89116L8.49598 8.8461C7.19402 10.322 7.24828 12.571 8.65928 13.982L16.0067 21.3356C16.0068 21.3357 16.0069 21.3358 16.0069 21.3359C17.4164 22.7454 19.6653 22.8032 21.1431 21.4995L26.0981 26.4545C23.0508 28.9915 18.5565 28.858 15.6682 25.9696ZM27.9865 24.6132L27.3648 25.2349L22.3923 20.2622L23.0138 19.6407C23.3566 19.298 23.9142 19.2979 24.257 19.6407L27.9864 23.3701C28.3292 23.7129 28.3292 24.2706 27.9865 24.6132Z" fill="#039951"/>
</svg>
