<svg width="24" height="24" viewBox="0 0 24 24" fill="none" xmlns="http://www.w3.org/2000/svg">
<path d="M13.3254 12.0008L23.7249 1.60119C24.0911 1.23505 24.0911 0.64143 23.7249 0.275337C23.3588 -0.0907557 22.7652 -0.0908026 22.3991 0.275337L11.9995 10.6749L1.59997 0.275337C1.23383 -0.0908026 0.64021 -0.0908026 0.274117 0.275337C-0.0919764 0.641477 -0.0920233 1.2351 0.274117 1.60119L10.6736 12.0007L0.274117 22.4003C-0.0920233 22.7664 -0.0920233 23.3601 0.274117 23.7262C0.457163 23.9092 0.697116 24.0007 0.937069 24.0007C1.17702 24.0007 1.41693 23.9092 1.60002 23.7262L11.9995 13.3266L22.399 23.7262C22.5821 23.9092 22.822 24.0007 23.062 24.0007C23.3019 24.0007 23.5418 23.9092 23.7249 23.7262C24.0911 23.36 24.0911 22.7664 23.7249 22.4003L13.3254 12.0008Z" fill="white"/>
</svg>
