<svg width="27" height="35" viewBox="0 0 27 35" fill="none" xmlns="http://www.w3.org/2000/svg">
<path d="M26.976 28.664V35H1.584V29.96L14.544 17.72C15.92 16.408 16.848 15.288 17.328 14.36C17.808 13.4 18.048 12.456 18.048 11.528C18.048 10.184 17.584 9.16 16.656 8.456C15.76 7.72 14.432 7.352 12.672 7.352C11.2 7.352 9.872 7.64 8.688 8.216C7.504 8.76 6.512 9.592 5.712 10.712L0.048 7.064C1.36 5.112 3.168 3.592 5.472 2.504C7.776 1.384 10.416 0.823999 13.392 0.823999C15.888 0.823999 18.064 1.24 19.92 2.072C21.808 2.872 23.264 4.024 24.288 5.528C25.344 7 25.872 8.744 25.872 10.76C25.872 12.584 25.488 14.296 24.72 15.896C23.952 17.496 22.464 19.32 20.256 21.368L12.528 28.664H26.976Z" fill="#039951"/>
</svg>
