<svg width="65" height="65" viewBox="0 0 65 65" fill="none" xmlns="http://www.w3.org/2000/svg">
<path d="M32.6646 0.000507812C32.6623 0.000507812 32.6602 0.000507812 32.6579 0.000380859C32.6475 0.000380859 32.6372 0 32.6269 0C32.6254 0 32.6238 0 32.6223 0C32.6183 0 32.6141 0.000126953 32.61 0.000126953C14.6994 0.00926756 0 14.5046 0 32.373C0 36.7422 0.870262 40.9972 2.58679 45.0198C5.91004 52.8081 12.1752 59.0826 19.98 62.413C24.0021 64.1292 28.2565 64.9996 32.6251 64.9997C32.6263 64.9997 32.6274 65 32.6285 65C32.6315 65 32.6345 64.9997 32.6374 64.9996C50.6077 64.9939 64.9999 50.1878 64.9999 32.373C64.9999 14.5074 50.558 0.0206933 32.6646 0.000507812ZM26.3195 4.49959C23.0719 7.57845 20.4185 11.1844 18.4204 15.2343H9.58685C13.638 9.89725 19.5301 6.00805 26.3195 4.49959ZM7.14567 19.0175H16.7929C15.4608 22.6671 14.6732 26.5569 14.47 30.4687H3.87422C4.14806 26.3646 5.30016 22.4698 7.14567 19.0175ZM7.2174 45.9569C5.32707 42.4353 4.14857 38.4778 3.87321 34.2773H14.457C14.6388 38.2758 15.4323 42.2285 16.7932 45.9569H7.2174ZM9.6648 49.7655H18.4204C20.4147 53.808 23.0644 57.4127 26.311 60.4923C19.5681 58.9786 13.7118 55.0954 9.6648 49.7655ZM18.2712 34.2773H30.7225V45.9569H20.8997C19.3791 42.2933 18.4755 38.3501 18.2712 34.2773ZM30.7227 59.3016C27.4849 56.6058 24.8004 53.3685 22.7588 49.7655H30.7226V59.3016H30.7227ZM30.7227 30.4687H18.284C18.5124 26.4858 19.4108 22.6304 20.9 19.0429H30.7227V30.4687ZM30.7227 15.2343H22.7591C24.8005 11.6314 27.485 8.39412 30.7227 5.69815V15.2343ZM57.8835 19.0429C59.7129 22.4952 60.8547 26.3646 61.1263 30.4687H50.7837C50.5804 26.5569 49.7928 22.6924 48.4607 19.0429H57.8835ZM55.4641 15.2343H46.8336C44.8408 11.1951 42.1939 7.59318 38.9513 4.51533C45.6504 6.03547 51.4628 9.91629 55.4641 15.2343ZM34.5313 5.69892C37.769 8.39489 40.4546 11.6314 42.496 15.2343H34.5313V5.69892ZM34.5312 19.0429H44.3563C45.8452 22.6301 46.7416 26.4861 46.97 30.4687H34.5312V19.0429ZM46.9837 34.2519C46.7796 38.3244 45.8768 42.2936 44.3563 45.9569H34.5312V34.2519H46.9837ZM34.5313 59.301V49.7401H42.496C40.4546 53.3431 37.769 56.6049 34.5313 59.301ZM38.9599 60.4763C42.1961 57.4028 44.8412 53.7786 46.8334 49.7401H55.3866C51.39 55.0506 45.6129 58.951 38.9599 60.4763ZM48.4608 45.9569C49.8218 42.2285 50.6152 38.2504 50.797 34.2519H61.1274C60.8545 38.4524 59.6864 42.4353 57.8127 45.9569H48.4608Z" fill="#039951"/>
</svg>
