<svg width="36" height="58" viewBox="0 0 36 58" fill="none" xmlns="http://www.w3.org/2000/svg">
<rect width="36" height="40" fill="#039951"/>
<circle cx="18" cy="40" r="18" fill="#039951"/>
<path d="M16.5489 28.9271C16.8483 28.0057 18.1517 28.0057 18.4511 28.9271L19.8574 33.2553C19.9913 33.6673 20.3752 33.9463 20.8085 33.9463H25.3595C26.3282 33.9463 26.731 35.1859 25.9473 35.7553L22.2654 38.4303C21.9149 38.685 21.7683 39.1364 21.9021 39.5484L23.3085 43.8766C23.6078 44.798 22.5533 45.5641 21.7696 44.9947L18.0878 42.3197C17.7373 42.065 17.2627 42.065 16.9122 42.3197L13.2304 44.9947C12.4467 45.5641 11.3922 44.798 11.6915 43.8766L13.0979 39.5484C13.2317 39.1364 13.0851 38.685 12.7346 38.4303L9.05275 35.7553C8.26904 35.1859 8.67181 33.9463 9.64053 33.9463H14.1915C14.6248 33.9463 15.0087 33.6673 15.1426 33.2553L16.5489 28.9271Z" fill="white"/>
</svg>
