<svg width="28" height="35" viewBox="0 0 28 35" fill="none" xmlns="http://www.w3.org/2000/svg">
<path d="M18.568 14.08C21.512 14.56 23.768 15.664 25.336 17.392C26.904 19.088 27.688 21.2 27.688 23.728C27.688 25.68 27.176 27.488 26.152 29.152C25.128 30.784 23.56 32.096 21.448 33.088C19.368 34.08 16.808 34.576 13.768 34.576C11.4 34.576 9.064 34.272 6.76 33.664C4.488 33.024 2.552 32.128 0.952 30.976L3.976 25.024C5.256 25.984 6.728 26.736 8.392 27.28C10.088 27.792 11.816 28.048 13.576 28.048C15.528 28.048 17.064 27.68 18.184 26.944C19.304 26.176 19.864 25.104 19.864 23.728C19.864 20.976 17.768 19.6 13.576 19.6H10.024V14.464L16.936 6.64H2.632V0.399998H26.152V5.44L18.568 14.08Z" fill="#039951"/>
</svg>
